<?xml version="1.0" encoding="utf-8"?>
<!-- Generator: Adobe Illustrator 22.1.0, SVG Export Plug-In . SVG Version: 6.00 Build 0)  -->
<svg version="1.1" id="Layer_1" xmlns="http://www.w3.org/2000/svg" xmlns:xlink="http://www.w3.org/1999/xlink" x="0px" y="0px"
	 viewBox="0 0 215.2 295.5" style="enable-background:new 0 0 215.2 295.5;" xml:space="preserve">
<style type="text/css">
	.st0{clip-path:url(#SVGID_2_);}
	.st1{fill:#9C5F0E;}
	.st2{clip-path:url(#SVGID_4_);}
	.st3{fill:#FFFFFF;}
	.st4{clip-path:url(#SVGID_6_);}
	.st5{clip-path:url(#SVGID_8_);}
	.st6{clip-path:url(#SVGID_10_);}
	.st7{fill:none;stroke:#231F20;stroke-width:3;}
	.st8{clip-path:url(#SVGID_12_);}
	.st9{fill:#69321F;}
</style>
<title>chirs-coffee-logo-vertical</title>
<g id="Layer_2_1_">
	<g id="Layer_1-2">
		<g>
			<defs>
				<rect id="SVGID_1_" width="215.2" height="295.5"/>
			</defs>
			<clipPath id="SVGID_2_">
				<use xlink:href="#SVGID_1_"  style="overflow:visible;"/>
			</clipPath>
			<g class="st0">
				<path class="st1" d="M67.6,200.1c-1.8-12.6,16.6-25.6,40.9-29s45.5,4.1,47.3,16.8s-16.6,25.6-40.9,29S69.3,212.8,67.6,200.1"/>
				<path d="M184.5,243.6c3.6,19.6-26.7,41.6-67.9,49.3s-77.4-2-81.1-21.5s26.8-41.6,67.9-49.3S180.9,224,184.5,243.6"/>
			</g>
		</g>
		<g>
			<defs>
				<rect id="SVGID_3_" y="-0.5" width="216" height="296"/>
			</defs>
			<clipPath id="SVGID_4_">
				<use xlink:href="#SVGID_3_"  style="overflow:visible;"/>
			</clipPath>
			<g class="st2">
				<path class="st3" d="M175.4,243.7c3.1,16.7-23.2,35.6-58.9,42.2s-67-1.5-70.2-18.2s23.2-35.6,58.9-42.3S172.3,227,175.4,243.7"
					/>
				<path d="M166.5,242.1c2.4,13.2-18.7,28.2-47.3,33.5s-53.7-1-56.2-14.2c-2.5-13.2,18.7-28.2,47.3-33.5S164,228.9,166.5,242.1"/>
				<path class="st3" d="M157.6,242.6c2.1,11-15.6,23.5-39.3,27.9s-44.7-0.9-46.8-11.9c-2.1-11,15.6-23.5,39.3-27.9
					S155.6,231.6,157.6,242.6"/>
				<path d="M175.8,181.4c-4.2-2-9.6-0.5-14.1,3.5c-0.2-1.2-0.4-2.5-0.6-3.7c0-0.4-0.1-0.8-0.1-1.2c-1-6.9-6.4-12.6-14.6-16.4h0.1
					c-7.1-3.4-16.1-5.4-25.9-5.6c0.8,0.8,1.3,1.9,1.4,3c0.1,1-0.1,2.1-0.7,2.9c5.3,0.2,10.5,1,15.6,2.5l0,0
					c10.3,3.2,17.4,9.2,18.5,16.9c1.9,13.8-16.3,27.7-40.6,31.1s-45.7-4.9-47.5-18.8c-0.9-6.4,2.7-12.9,9.2-18.3
					c4.4-3.4,9.2-6.1,14.3-8.1c-0.8-0.7-1.4-1.6-1.6-2.6c-0.3-1.1-0.1-2.3,0.4-3.3c-3.8,1.4-7.6,3.2-11.1,5.2l0,0
					c-11.8,6.8-18.8,16-17.5,25.2c0,0-0.1-0.1-0.1-0.1c0.1,2,0.3,4,0.6,6c4.5,32.2,30.6,55.2,58.4,51.4
					c17.6-2.5,31.7-15.2,38.4-32.3c6.7,3.1,16-2.6,21-12.9S182.5,184.6,175.8,181.4 M173.5,203.7c-2.6,5.5-7.6,8.6-11,7
					c-0.6-0.3-1.2-0.8-1.6-1.4c1-4.6,1.5-9.3,1.5-14c2.8-3.9,6.7-5.9,9.6-4.6C175.5,192.4,176.1,198.2,173.5,203.7L173.5,203.7z"/>
			</g>
		</g>
		<g>
			<defs>
				<rect id="SVGID_5_" width="215.2" height="295.5"/>
			</defs>
			<clipPath id="SVGID_6_">
				<use xlink:href="#SVGID_5_"  style="overflow:visible;"/>
			</clipPath>
			<g class="st4">
				<path d="M122.4,31.3c-12.3,1.8-14.6,10.6-15.8,18.6c-0.5,3.4,0.7,11.7,3.2,18.3c8.9,23,0.1,46.7-0.5,49.6
					c-1.7,8.5-9.5,22.2-1.2,47.8c0.5,1.1,1.8,1.5,2.8,1c0.1,0,0.1-0.1,0.2-0.1c1-0.6,1.4-1.9,0.9-3c-7.2-17.9,1.7-37,3.3-45.2
					c0.6-3.1,11.3-26.7-0.4-54.4c-1.7-4.1-2.4-8.7-1.9-13.1c1.4-9.1,3.8-12.2,10.4-13.2c3.8-0.4,7.5,1.2,9.8,4.3
					c1,1.2,3.1,4.5,1.7,8.1c-0.7,2.1-2.6,3.6-4.8,3.9c-1.4,0.3-2.7-0.1-3.8-1.1c-0.9-1.2-1.3-2.8-1.1-4.3c0.3-1.7-0.8-3.4-2.6-3.8
					c-1.7-0.4-3.4,0.7-3.8,2.4c-0.5,3.3,0.3,6.6,2.2,9.3c1.9,2.8,5.8,4.3,9.8,3.9c4.6-0.5,8.5-3.6,10.1-7.9
					c1.9-4.7,0.9-10.1-2.6-14.5C134.4,33.1,128.4,30.6,122.4,31.3"/>
				<path d="M113.3,5.8c-3.2-3.9-8-6-13-5.8c-6.8,0.4-13.1,4-16.8,9.8c-4.8,7.1-5.6,16.6-2.2,25.9c0.1,0.3,0.3,0.7,0.4,1
					c-3.4-2.2-7.4-3.2-11.4-2.9c-5.1,0.4-9.5,3.4-10.9,7.4c-1.1,3.2-0.9,6.7,0.6,9.7c1.7,3.3,4.7,5.8,8.3,6.9c3.2,1.1,6.8,0,8.7-2.7
					c2-2.4,2.4-5.8,0.9-8.6c-2.3-4.2-5.4-4.3-6-4.3c-1.8-0.1-3.5,0.5-3.6,2.3s0.5,2.8,2.3,2.9c0,0,2.2,0.2,2.7,1.4
					c0.5,1,0.2,2.1-0.7,2.7c-0.8,0.8-2.1,0.3-2.6,0.1c-1.9-0.6-3.4-1.8-4.3-3.6c-0.7-1.4-0.8-3.1-0.3-4.6c1-3.5,4.6-5.5,8.1-4.6
					c21.8,4.1,30.5,62.9,24.5,81.6c-4.4,14-6.7,31.8,1,48.3c0.5,1.1,1.8,1.7,2.9,1.2s1.7-1.8,1.2-2.9c0,0,0-0.1-0.1-0.1
					c-7.3-15.7-3.9-30.8-0.4-40.6c9.1-25.4-0.9-61.2-9.6-79.8c-2.4-5-4.4-9.4-5.7-12.9c-2.7-7.5-2.2-14.7,1.5-20.1
					c2.6-4,6.9-6.6,11.6-6.9c3-0.1,5.9,1.1,7.8,3.4c2.1,2.6,2.9,6.1,2.1,9.3c-0.5,2.2-2.3,3.9-4.6,4.2c-2.3,0.4-4.2-0.5-4.6-1.2
					c-1.6-2.5,0.1-5.9,0.1-6c0.8-1.6,0.2-3.5-1.4-4.4s-3.5-0.2-4.4,1.4c-0.2,0.3-3.4,6.7,0.1,12.4c2,3.2,6.6,4.9,11.2,4.1
					c4.9-0.7,8.8-4.4,9.8-9.2C117.9,15.4,116.7,9.9,113.3,5.8"/>
			</g>
		</g>
		<g>
			<defs>
				<rect id="SVGID_7_" y="-0.5" width="216" height="296"/>
			</defs>
			<clipPath id="SVGID_8_">
				<use xlink:href="#SVGID_7_"  style="overflow:visible;"/>
			</clipPath>
			<g class="st5">
				<path d="M147,240.4c0.6,2.8-12.2,8.1-28.6,11.6s-30.2,4.1-30.8,1.3c-0.6-2.8,12.2-8.1,28.6-11.6S146.4,237.6,147,240.4"/>
				<path class="st3" d="M154.8,200.6c-3.1,5.3-17.9,17.9-38.7,20.7c-19.2,2.7-40.6-4.1-45-8.4c0,0.9,12.8,35.9,46.6,31.2
					C156.2,238.8,155.1,201.4,154.8,200.6"/>
				<path d="M150.4,209.8c-2.1,3.6-15,11.6-28.4,14.1c-2.1,0.3-4.1,1.1-4,1.9s2.4,1,4,0.8c4.8-0.3,8,0.3,8.4,1.4
					c0.6,1.8-8.1,3.7-8.1,3.7c-1.7,0.3-2.9,1.1-2.8,1.6c0.2,0.8,2.5,0.5,3.9,0.4c4.1-0.3,6.1,0.3,6.2,1.1s-2.6,2.1-6.4,3
					c-1.8,0.3-3,1-3,1.5s2,0.8,6-0.1C147.9,233,150.6,210.4,150.4,209.8"/>
				<rect x="1.5" y="72" class="st1" width="212.2" height="51.9"/>
			</g>
		</g>
		<g>
			<defs>
				<rect id="SVGID_9_" width="215.2" height="295.5"/>
			</defs>
			<clipPath id="SVGID_10_">
				<use xlink:href="#SVGID_9_"  style="overflow:visible;"/>
			</clipPath>
			<g class="st6">
				<rect x="1.5" y="72" class="st7" width="212.2" height="51.9"/>
			</g>
		</g>
		<g>
			<defs>
				<rect id="SVGID_11_" y="-0.5" width="216" height="296"/>
			</defs>
			<clipPath id="SVGID_12_">
				<use xlink:href="#SVGID_11_"  style="overflow:visible;"/>
			</clipPath>
			<g class="st8">
				<path class="st3" d="M42.2,93.2c-3.3-0.6-6.7-1-10.1-1c-5.3,0-8.5,1.5-8.5,7s3.6,6.6,8.4,6.6c3.4-0.1,6.8-0.5,10.2-1.2v11.9
					c-4.6,1.4-9.4,2.2-14.1,2.3c-14.6,0-20.2-6.7-20.2-21c0-12.8,5.3-19.9,19.9-19.9c5.3,0,11.8,1.8,14.5,2.6V93.2"/>
				<polyline class="st3" points="48.5,78.9 63.5,78.9 63.5,92.7 72.4,92.7 72.4,78.9 87.4,78.9 87.4,117.8 72.4,117.8 72.4,104 
					63.5,104 63.5,117.8 48.5,117.8 48.5,78.9 				"/>
				<path class="st3" d="M109.1,89.1h5.4c3.3,0,4.5,1.2,4.5,3.7c0,3.8-2.3,4.3-5.3,4.3h-4.7V89.1 M94.1,117.9h15v-13.7h0.2l8.9,13.7
					h17.4l-12.5-16.6c7.5-0.2,11-3.8,11-11.2c0-9.6-6.4-11.3-14-11.3h-26L94.1,117.9z"/>
				<rect x="141.1" y="78.9" class="st3" width="15" height="39"/>
				<path class="st3" d="M164.6,107.7c1.8,0.3,5.2,0.9,13.5,0.9c3.1,0,4.6-0.4,4.6-2.6s-0.7-2.6-3.9-2.6h-3.4
					c-7,0-12.3-1.3-12.3-12.8c0-11.1,8.5-12.6,17.2-12.6c5.3,0.1,10.6,0.5,15.8,1.3v11.6c-3.6-0.3-7.6-0.8-12.7-0.8
					c-4.5,0-5.8,0.7-5.8,2.7c0,1.5,0.8,2.3,4.1,2.3c11.8,0,15.6,1.5,15.6,11.1c0,11.2-6.7,12.7-16.4,12.7c-5.5,0-10.9-0.4-16.4-1.1
					L164.6,107.7"/>
				<rect x="199.1" y="78.9" class="st3" width="8.9" height="16.7"/>
				<path class="st3" d="M14.9,143.6c-0.2,3.2-3,5.6-6.1,5.4c-4.6,0-6.7-4.3-6.7-8.4s2.1-8.4,6.7-8.4c3.4,0,5.6,1.9,6.1,5.4
					l-3.1,0.4c-0.3-1.7-1.1-3.2-3.1-3.2c-2.8,0-3.4,3.7-3.4,5.8s0.6,5.8,3.4,5.8c2,0,2.7-1.5,3.1-3.2L14.9,143.6"/>
				<path class="st3" d="M29.9,140.6c0,4.1-2.1,8.4-6.7,8.4s-6.7-4.3-6.7-8.4s2.1-8.4,6.7-8.4S29.9,136.4,29.9,140.6 M19.8,140.6
					c0,2.1,0.6,5.8,3.4,5.8s3.4-3.7,3.4-5.8s-0.6-5.8-3.4-5.8S19.8,138.5,19.8,140.6z"/>
				<polyline class="st3" points="42.3,135.2 35.5,135.2 35.5,139.1 40.8,139.1 40.8,141.8 35.5,141.8 35.5,148.7 32.2,148.7 
					32.2,132.4 42.3,132.4 42.3,135.2 				"/>
				<polyline class="st3" points="55.2,135.2 48.3,135.2 48.3,139.1 53.6,139.1 53.6,141.8 48.3,141.8 48.3,148.7 45,148.7 
					45,132.4 55.2,132.4 55.2,135.2 				"/>
				<polyline class="st3" points="67.9,135.2 61.1,135.2 61.1,139.1 66.8,139.1 66.8,141.8 61.1,141.8 61.1,145.9 68.3,145.9 
					68.3,148.7 57.8,148.7 57.8,132.4 67.9,132.4 67.9,135.2 				"/>
				<polyline class="st3" points="81.6,135.2 74.7,135.2 74.7,139.1 80.4,139.1 80.4,141.8 74.7,141.8 74.7,145.9 81.9,145.9 
					81.9,148.7 71.4,148.7 71.4,132.4 81.6,132.4 81.6,135.2 				"/>
				<path class="st3" d="M130.4,137.2c-0.3-1.1-0.9-2.3-2.3-2.3c-1.1,0-1.9,0.8-2,1.8c0,0,0,0,0,0.1c0,3.2,7.7,1.1,7.7,7.2
					c0,2-1.5,5-5.5,5c-3.1,0-5.3-1.5-5.8-4.7l3.3-0.5c0.3,1.4,1,2.4,2.6,2.4c1.1,0.1,2.2-0.7,2.3-1.8c0-0.1,0-0.2,0-0.3
					c0-3.3-7.7-1.4-7.7-6.9c0.1-2.8,2.4-5.1,5.3-5c0,0,0,0,0,0c2.7-0.1,4.9,1.9,5.1,4.5L130.4,137.2"/>
				<polyline class="st3" points="146.9,135.2 140.1,135.2 140.1,139.1 145.8,139.1 145.8,141.8 140.1,141.8 140.1,145.9 
					147.3,145.9 147.3,148.7 136.8,148.7 136.8,132.4 146.9,132.4 146.9,135.2 				"/>
				<path class="st3" d="M156.9,132.4c3.8,0,5.2,2.7,5.2,4.8c0,1.8-1.1,3.4-2.8,4.1l3.2,7.4h-3.4l-2.9-6.8h-2.5v6.8h-3.3v-16.3
					H156.9 M155.1,139.2c1.4,0,3.6,0.1,3.6-2c0-2.2-2.2-2-3.8-2h-1.2v4H155.1z"/>
				<polyline class="st3" points="171.5,148.7 168.5,148.7 163.6,132.4 166.9,132.4 170,144.5 170,144.5 173.1,132.4 176.4,132.4 
					171.5,148.7 				"/>
				<rect x="178.5" y="132.4" class="st3" width="3.3" height="16.3"/>
				<path class="st3" d="M197.6,143.6c-0.3,3.2-3,5.6-6.1,5.4c-4.6,0-6.7-4.3-6.7-8.4s2.1-8.4,6.7-8.4c3.4,0,5.6,1.9,6.1,5.4
					l-3.1,0.4c-0.3-1.7-1.1-3.2-3-3.2c-2.8,0-3.4,3.7-3.4,5.8s0.6,5.8,3.4,5.8c1.9,0,2.7-1.5,3-3.2L197.6,143.6"/>
				<polyline class="st3" points="210.7,135.2 203.9,135.2 203.9,139.1 209.5,139.1 209.5,141.8 203.9,141.8 203.9,145.9 
					211.1,145.9 211.1,148.7 200.6,148.7 200.6,132.4 210.7,132.4 210.7,135.2 				"/>
				<path class="st9" d="M130.9,176.9c-0.2,1,0.5,2,1.5,2.1c0,0,0,0,0,0c3.4,0.6,10,4.8,10,7.3c0.1,4-7.6,11.5-21.7,14.6
					c-9.8,2.1-28.1,3-34.9,0.8c-13.3-4.2,1.9-16.9,17.2-20c8.7-1.8,23-0.8,23.8,2.8s-4.4,6.6-13.4,8.9c0,0-16.4,2.6-16.9-0.3
					s14.4-3.8,17.5-3.9c1,0,1.8-0.7,1.9-1.7c0-0.9-1-1.5-2-1.4c-0.4,0-18.7-1.1-22.9,5.1c-3.3,4.8,3.6,8,14.2,7.8
					c8.8-0.1,30.6-5.6,27.5-15c-3-9.1-24.3-8.7-30.5-7.4c-17.8,3.9-44.4,20.8-17.5,31c8.9,3.4,27.6,1.9,37.4-0.3
					c15.4-3.4,26.9-12.5,26.8-21.1c0-3.5-8.6-9.4-15.9-10.8C132,175.3,131.1,175.9,130.9,176.9"/>
			</g>
		</g>
	</g>
</g>
</svg>
